<svg xmlns="http://www.w3.org/2000/svg" width="256" height="256"><path fill-opacity=".016" d="M0 128.004v128.004l128.25-.254 128.25-.254.254-127.75L257.008 0H0v128.004m.485.496c0 70.4.119 99.053.265 63.672.146-35.38.146-92.98 0-128C.604 29.153.485 58.1.485 128.5" fill="#1976D2" fill-rule="evenodd"/><path fill-opacity=".311" d="M112.618 68.112c-2.134.501-6.666 2.24-10.069 3.865-16.149 7.707-25.716 22.852-25.942 41.068l-.107 8.667-6.254 6.684c-14.714 15.729-15.117 28.204-.948 29.379 4.662.386 13.377-1.134 18.952-3.307 1.573-.613 1.75.089 1.75 6.96 0 7.246-.1 7.589-1.934 6.607-3.581-1.916-8.959-1.232-11.677 1.485l-2.52 2.52.315 17.063c.384 20.727-.258 19.817 13.942 19.766l9.874-.035v-56.729l6.25 2.908c21.852 10.167 48.741-.047 59.442-22.579 3.248-6.84 3.668-8.674 4.068-17.78.31-7.054.873-10.493 1.843-11.264 3.456-2.748 13.56-16.251 15.02-20.074C187.943 74.624 183.3 68 173.889 68c-4.294 0-21.61 4.525-23.584 6.162-.825.684-3.204.034-7.663-2.094-9.993-4.769-20.604-6.167-30.024-3.956M168 75.677c-1.375.222-5.09 1.342-8.255 2.487l-5.754 2.083 3.536 3.914c1.944 2.153 4.511 5.922 5.703 8.376 1.193 2.455 2.477 4.463 2.854 4.463.377 0 2.998-2.812 5.823-6.25 5.826-7.087 8.366-13.332 6.025-14.813-1.439-.911-5.287-1.012-9.932-.26m-50.868 7.493c-5.853 1.026-12.121 4.166-15.63 7.827L98.626 94h6.753C112.437 94 116 95.144 116 97.41c0 1.977-6.988 16.964-8.282 17.764-.611.378-1.97.226-3.021-.336-1.468-.786-1.773-1.707-1.318-3.982l.592-2.959-4.531 3.253c-6.559 4.711-6.818 5.171-5.377 9.561 3.109 9.47 10.038 16.1 19.787 18.934 8.908 2.59 19.984.296 26.516-5.492 1.769-1.567 1.566-1.679-3.898-2.153-7.646-.663-8.514-2.085-5.581-9.135 3.735-8.976 5.492-11.865 7.218-11.865 2.429 0 4.163 2.581 3.383 5.038-.585 1.844-.427 1.996 1.167 1.116 1.015-.56 3.262-2.331 4.994-3.937 3.027-2.807 3.113-3.107 2.24-7.784-2.675-14.317-18.137-24.826-32.757-22.263M93.63 103.25c-1.001 3.735-.768 3.858 2.858 1.509 4.251-2.754 4.419-3.759.629-3.759-2.145 0-3.038.576-3.487 2.25m52.509 19.836c-2.216 1.796-2.237 1.914-.357 1.914 1.102 0 2.288-.739 2.635-1.643.91-2.372.39-2.434-2.278-.271m-73.592 13.029c-5.715 7.304-7.234 10.652-6.134 13.519.529 1.379 1.631 1.535 6.974.988 6.135-.629 16.613-3.24 16.613-4.14 0-.243-1.805-2.813-4.01-5.712-2.206-2.898-4.546-6.733-5.201-8.52-.655-1.787-1.525-3.25-1.933-3.25-.408 0-3.247 3.202-6.309 7.115m82.905 17.15c-.267.696-.366 13.408-.219 28.25l.267 26.985 4.25.307 4.25.308V152h-4.031c-2.328 0-4.237.534-4.517 1.265m75.262 7.354c-.393.393-.714 1.989-.714 3.548 0 2.166-.471 2.833-2 2.833-2.849 0-2.914 6.528-.072 7.271 1.783.466 1.952 1.686 2.25 16.199.37 18.032.612 18.53 9.013 18.53H244v-3.5c0-3.067-.31-3.5-2.5-3.5H239v-28h2.5c2.19 0 2.5-.433 2.5-3.5 0-3.042-.319-3.5-2.437-3.5-2.018 0-2.49-.558-2.75-3.25-.282-2.927-.664-3.28-3.849-3.548-1.944-.163-3.857.024-4.25.417M15.75 168.98L13 171.145v16.928C13 209.208 12.876 209 25.427 209c7.962 0 8.545-.149 10.548-2.696 1.538-1.955 2.039-3.809 1.823-6.75-.295-4.013-.338-4.054-4.298-4.054-3.754 0-4.019.193-4.306 3.145-.254 2.618-.794 3.216-3.226 3.573-1.607.236-3.382-.032-3.945-.595-.591-.591-1.023-6.422-1.023-13.804v-12.781l2.498-.627c3.606-.905 5.313.08 5.68 3.28.293 2.557.681 2.809 4.322 2.809 3.957 0 4.003-.043 4.255-4 .175-2.737-.357-4.786-1.685-6.49-1.719-2.205-2.832-2.53-9.755-2.843-6.817-.308-8.166-.076-10.565 1.813m30.587-.798c-3.025 1.463-3.308 3.255-3.323 21.068C42.996 209.06 42.959 209 55.5 209c12.555 0 12.5.088 12.5-19.953 0-16.872-.734-20.472-4.372-21.449-3.476-.932-14.958-.545-17.291.584m61.413.798l-2.75 2.165v16.928c0 21.04-.065 20.927 12.045 20.927 7.261 0 8.291-.245 10.56-2.514 1.959-1.959 2.446-3.339 2.205-6.25-.302-3.639-.414-3.736-4.3-3.736-3.652 0-4.034.255-4.51 3-.461 2.661-.914 3-4.01 3h-3.49l-.3-5.75-.3-5.75H130v-9.389c0-12.796-.937-13.958-11.652-14.442-6.851-.31-8.197-.08-10.598 1.811m27.696-.701c-.27.704-.368 10.042-.218 20.75l.272 19.471 4.25.307 4.25.308V193.18c0-16.951.196-17.67 5-18.334 2.091-.289 2.551-.959 2.81-4.096.256-3.086-.015-3.75-1.527-3.75-1.011 0-2.838.701-4.06 1.557-2.012 1.409-2.223 1.409-2.223 0 0-1.975-7.805-2.228-8.554-.278M171 186c0 23.826-.546 22.93 13.963 22.913l10.037-.012v-42.016l-4.25.308-4.25.307-.274 17.312-.274 17.311-3.226-.311-3.226-.312-.274-17.25-.273-17.25H171v19m32.425-16.69c-2.749 2.365-2.925 2.968-2.925 9.998 0 9.507 1.458 11.464 8.861 11.894l5.139.298.302 5.821.302 5.822-2.802-.322c-2.215-.254-2.868-.897-3.118-3.071-.286-2.48-.703-2.75-4.25-2.75-3.923 0-3.934.011-3.934 4 0 6.174 2.46 8 10.777 8C221.93 209 223 207.917 223 197.634c0-10.494-.874-11.793-8.35-12.413l-5.65-.469v-5.376c0-5.28.053-5.376 2.934-5.376 2.456 0 2.985.447 3.25 2.75.274 2.388.81 2.791 4.066 3.06l3.75.311v-4.37c0-6.722-1.569-8.105-9.716-8.565-6.265-.354-7.215-.149-9.859 2.124m-151.711 5.309c-.867.867-.962 24.572-.107 26.799.388 1.01 1.827 1.582 3.981 1.582 4.315 0 4.575-1.022 4.202-16.5l-.29-12-3.536-.298c-1.944-.163-3.857.024-4.25.417m30.747.623c-.289.753-.399 6.969-.243 13.813L82.5 201.5h7v-27l-3.257-.314c-2.071-.199-3.448.185-3.782 1.056m31.206-.575c-.367.366-.667 2.841-.667 5.5V185h8v-11h-3.333c-1.834 0-3.634.3-4 .667" fill="#1976D2" fill-rule="evenodd"/><path fill-opacity=".439" d="M108.762 69.942c-18.926 6.05-32.271 24.663-31.659 44.156l.207 6.598-7.168 8.402c-11.193 13.12-13.376 21.398-6.913 26.223 3.237 2.417 11.174 2.528 18.802.262 8.186-2.43 7.969-2.603 7.969 6.34v7.924l-2.955-1.474c-3.496-1.745-10.438-.398-11.442 2.22-.332.864-.603 9.158-.603 18.432 0 16.291.075 16.914 2.223 18.418 2.522 1.767 7.991 2.048 10.782.554 1.252-.67 2.079-.67 2.493 0 .341.552 2.168 1.003 4.061 1.003H98v-27.8c0-20.289-.324-28.124-1.2-29-1.831-1.831-.679-1.484 6.812 2.05 6.577 3.103 7.429 3.25 18.888 3.25 11.529 0 12.263-.129 18.698-3.276 3.684-1.802 9.193-5.556 12.241-8.342 9.223-8.43 15.553-24.312 14.265-35.794-.475-4.238-.252-4.691 5.671-11.5 12.472-14.337 15.202-23.357 8.375-27.671-4.358-2.755-14.207-2.113-25.65 1.67-8.278 2.737-8.445 2.751-11.5.959-9.368-5.493-25.009-7.066-35.838-3.604m3.738 5.448c-9.472 2.312-19.237 9.938-24.438 19.086-1.949 3.427-4.992 14.449-5.045 18.274-.024 1.744 2.479 1.562 4.018-.292.704-.848 4.368-3.614 8.143-6.147 7.748-5.199 7.889-5.858 1.322-6.186-1.735-.087-2.5-.7-2.5-2.003 0-3.135 2.109-3.714 11.5-3.156l9 .534-.123 3c-.068 1.65-1.518 6.073-3.223 9.829-2.365 5.209-3.521 6.742-4.877 6.466-1.347-.274-1.749-1.263-1.662-4.091l.115-3.73-3.095 1.96C96.102 112.438 85.052 122.46 85.026 124c-.041 2.424 5.247 11.696 8.85 15.516 12.662 13.424 32.72 16.357 48.522 7.097 5.123-3.003 12.625-11.034 15.019-16.079 2.036-4.291 5.18-18.27 4.305-19.145-.344-.344-3.01 1.375-5.924 3.82-2.914 2.446-6.985 5.461-9.048 6.7-4.573 2.749-4.823 4.353-.61 3.916 3.925-.406 6.175 2.294 3.843 4.612-1.188 1.181-3.323 1.354-10.733.871-8.844-.578-9.25-.706-9.25-2.931 0-2.653 5.659-15.539 7.26-16.534 2.324-1.444 3.964.387 3.41 3.805-.299 1.844-.299 3.352 0 3.352.764 0 9.856-7.308 15.063-12.108 4.918-4.533 4.926-5.062.216-13.392-8.494-15.024-26.072-22.35-43.449-18.11m48.715 1.549c-3.457.989-6.525 2.038-6.818 2.331-.294.293 1.14 2.715 3.187 5.382 2.046 2.666 4.573 6.76 5.615 9.098 1.042 2.338 2.154 4.25 2.472 4.25 1.085 0 8.825-9.311 11.562-13.909 3.121-5.244 3.452-7.614 1.185-8.484-2.881-1.106-10.829-.49-17.203 1.332M73.973 133.72c-6.46 7.068-9.867 13.633-8.341 16.071 1.578 2.522 6.314 2.592 15.093.223 11.137-3.005 11.396-3.25 7.618-7.22-1.723-1.812-4.493-5.874-6.154-9.027l-3.02-5.732-5.196 5.685m82.479 19.545c-.267.696-.366 13.408-.219 28.25l.267 26.985 3.25.313 3.25.314V152h-3.031c-1.668 0-3.25.569-3.517 1.265m74.344 10.797c.364 2.482.047 3.166-1.673 3.616-2.734.715-2.808 4.413-.123 6.09 1.859 1.161 2 2.332 2 16.618 0 17.577.167 17.962 7.834 18.056 4.305.054 4.689-.144 4.969-2.556.257-2.216-.167-2.709-2.777-3.231l-3.081-.616.277-14.27.278-14.269 2.5-.014c1.959-.011 2.567-.59 2.809-2.678.264-2.267-.108-2.712-2.5-2.986-2.357-.27-2.859-.845-3.122-3.572-.293-3.035-.562-3.25-4.077-3.25-3.63 0-3.748.109-3.314 3.062M149 167.755c-.825.279-2.232 1.142-3.126 1.919-1.408 1.222-1.707 1.205-2.219-.131-.379-.988-1.863-1.543-4.124-1.543H136v41h6.824l.338-15.849c.365-17.097.859-18.787 5.661-19.342 1.94-.224 2.769-.96 3.012-2.674.391-2.767-.721-4.092-2.835-3.38m-133.595 2.347c-1.644 1.814-1.95 4.022-2.233 16.122-.362 15.512-.033 17.915 2.853 20.801 1.549 1.549 3.323 1.972 8.225 1.961 3.438-.007 7.208-.27 8.378-.584 2.599-.698 4.372-4.327 4.372-8.949 0-3.267-.185-3.453-3.437-3.453-3.146 0-3.463.275-3.75 3.25-.296 3.073-.531 3.25-4.313 3.25h-4l-.277-14.224-.278-14.224 2.682-.673c3.635-.913 5.809.678 6.191 4.53.292 2.949.574 3.183 3.5 2.899 2.902-.281 3.21-.644 3.497-4.134.189-2.296-.32-4.796-1.273-6.25-1.47-2.244-2.207-2.424-9.91-2.424-7.185 0-8.582.287-10.227 2.102m30.036-.685c-1.762 1.287-1.97 2.946-2.258 17.979-.317 16.559-.317 16.561 2.205 19.082 2.243 2.244 3.342 2.522 9.956 2.522 5.83 0 7.944-.413 9.795-1.912 2.315-1.874 2.361-2.243 2.361-19.08 0-15.842-.15-17.279-1.941-18.589-2.665-1.949-17.449-1.95-20.118-.002m62.17.115c-2.318 2.318-2.844 7.018-2.461 21.995.332 12.933.474 13.752 2.711 15.562 1.816 1.471 3.959 1.911 9.295 1.911 6.03 0 7.255-.32 9.389-2.455 1.683-1.683 2.455-3.569 2.455-6 0-3.372-.168-3.545-3.434-3.545-3.002 0-3.473.345-3.75 2.75-.283 2.466-.759 2.782-4.615 3.06l-4.3.31.3-6.31.299-6.31 7.75-.292 7.75-.292v-8.736c0-12.374-.702-13.18-11.485-13.18-6.187 0-8.772.4-9.904 1.532M171 186.045c0 17.826.03 18.076 2.455 20.5 2.652 2.652 8.07 3.315 11.611 1.42 1.333-.714 1.934-.714 1.934 0 0 1.33 6.992 1.365 7.023.035.013-.55.037-9.662.053-20.25l.029-19.25-3.553-.31-3.552-.311v15.979c0 8.788-.273 16.69-.607 17.56-.717 1.869-5.455 2.12-7.193.382-.835-.835-1.2-6.156-1.2-17.5V168h-7v18.045m33.4-17.28c-2.199 1.469-3.4 5.22-3.4 10.622 0 9.511 1.541 11.249 10.5 11.846l4 .267v5.5c0 5.474-.015 5.501-3.25 5.813-2.903.28-3.25.04-3.25-2.25 0-2.335-.365-2.563-4.111-2.563h-4.112l.662 3.75c.943 5.339 3.642 7.25 10.238 7.25 5.344 0 9.094-1.207 10.558-3.4.404-.605.741-4.518.75-8.695.018-9.017-1.323-10.905-7.742-10.905-5.116 0-7.248-2.012-7.228-6.821.021-4.956 1.128-6.405 4.594-6.009 2.31.264 2.955.882 3.207 3.08.277 2.405.748 2.75 3.75 2.75 3.213 0 3.434-.211 3.434-3.277 0-1.803-.701-4.278-1.557-5.5-1.365-1.95-2.44-2.221-8.75-2.208-3.956.009-7.688.346-8.293.75M51.2 174.2c-1.262 1.262-1.761 24.174-.593 27.218.848 2.211 8.938 2.211 9.786 0 1.168-3.044.669-25.956-.593-27.218-.66-.66-2.595-1.2-4.3-1.2-1.705 0-3.64.54-4.3 1.2m32.021-.358c-.962.611-1.21 4.268-1 14.735L82.5 202.5h7l.279-13.923c.287-14.295-.017-15.546-3.779-15.546-.825 0-2.076.365-2.779.811m30.446-.175c-.367.366-.667 3.066-.667 6V185h9v-5.393c0-3.995-.41-5.55-1.582-6-2.102-.807-5.919-.773-6.751.06" fill="#1976D2" fill-rule="evenodd"/><path fill-opacity=".505" d="M115.028 69.094c-13.417 1.728-27.056 12.133-33.152 25.289-2.869 6.193-3.351 8.413-3.712 17.093l-.415 9.976-6.409 7.022c-9.611 10.531-13.227 19.132-10.323 24.558 2.422 4.525 13.362 4.657 28.233.341 1.571-.456 1.75.378 1.75 8.167 0 7.887-.159 8.604-1.75 7.905-3.745-1.645-9.275-1.659-11.763-.028-2.486 1.629-2.487 1.635-2.487 18.451 0 15.027.195 16.999 1.829 18.477 2.185 1.978 10.147 2.244 12.096.405 1.06-1 1.417-1 1.783 0 .252.688 1.771 1.25 3.375 1.25H97v-27.5c0-23.778-.203-27.5-1.5-27.5-1.985 0-1.923-1.624.091-2.396.875-.336 2.787.239 4.25 1.279 1.462 1.039 5.858 2.84 9.767 4.003C138.729 164.547 167 143.2 167 112.552v-8.136l4.43-4.347c6.191-6.076 11.23-13.728 12.716-19.307 1.154-4.333 1.087-4.972-.783-7.478-3.804-5.095-12.652-5.155-27.202-.183l-8.338 2.849-5.662-2.933c-5.116-2.652-8.269-3.444-17.661-4.439-1.65-.175-5.913.057-9.472.516m-5.654 6.527C96.131 80.198 85.672 92.6 83.005 106.886c-1.962 10.513-1.206 11.221 5.59 5.239 2.421-2.131 6.641-5.393 9.378-7.25 2.736-1.856 4.987-3.713 5.001-4.125.014-.412-1.747-.75-3.915-.75-4.363 0-5.865-1.323-4.023-3.544 1.601-1.929 15.793-2.033 18.388-.135 1.714 1.253 1.628 1.729-1.668 9.25-2.707 6.178-3.976 8.003-5.748 8.266-1.922.285-2.196-.026-1.77-2 .278-1.285.836-3.124 1.24-4.087.405-.963.35-1.745-.121-1.739-1.202.014-11.205 7.646-16.803 12.821l-4.686 4.331 1.548 4.543c2.833 8.317 10.986 16.862 20.584 21.576 6.029 2.961 7.224 3.189 16.5 3.139 8.593-.045 10.783-.417 15.567-2.643 13.272-6.176 22.74-19.343 23.715-32.981.268-3.738.182-6.797-.189-6.797-.372 0-1.67.947-2.885 2.106-1.214 1.158-5.583 4.644-9.708 7.748l-7.5 5.643 4 .502c3.2.401 4.064.951 4.32 2.751.312 2.199.103 2.25-9.282 2.25-11.543 0-11.916-.427-8.108-9.286 3.77-8.773 4.066-9.214 6.179-9.214 1.976 0 2.354 2.366.919 5.75-.408.963-.356 1.745.115 1.739 1.093-.013 10.628-7.22 16.815-12.71l4.757-4.221-2.274-5.486c-4.461-10.765-14.5-19.349-26.873-22.979-7.462-2.189-14.28-1.88-22.694 1.028m52.126.669c-3.85 1.147-7.308 2.542-7.684 3.1-.376.558.788 2.643 2.588 4.635 1.799 1.991 4.356 5.932 5.683 8.757 1.327 2.825 2.923 5.154 3.547 5.177 1.486.054 7.758-6.931 11.446-12.746 3.117-4.915 3.66-8.073 1.72-10.013-1.763-1.763-9.321-1.286-17.3 1.09m-86.69 55.499c-3.919 4.338-9.159 11.85-10.138 14.533-1.342 3.68.977 5.677 6.613 5.692 5.101.015 18.612-3.615 19.828-5.327.338-.474-.698-2.286-2.301-4.025-1.603-1.739-4.345-5.75-6.094-8.912-1.749-3.162-3.473-5.75-3.832-5.75-.36 0-2.194 1.705-4.076 3.789M157 180.5V208h6v-55h-6v27.5m74-16.117c0 2.543-.497 3.514-2 3.907-1.197.313-2 1.364-2 2.616 0 1.427.637 2.094 2 2.094 1.916 0 2 .667 2 15.845 0 18.166.404 19.155 7.829 19.155 3.782 0 4.171-.233 4.171-2.5 0-1.995-.501-2.5-2.481-2.5-3.311 0-3.66-1.792-3.308-17l.289-12.5 2.75-.316c2.136-.246 2.75-.845 2.75-2.684 0-1.839-.614-2.438-2.75-2.684-2.291-.263-2.802-.858-3.063-3.566-.276-2.858-.668-3.25-3.25-3.25-2.671 0-2.937.307-2.937 3.383m-213 4.311c-3.543 1.266-4 3.467-4 19.275C14 207.903 14.053 208 24.866 208c9.199 0 10.82-.967 11.32-6.75.363-4.21.336-4.25-2.91-4.25-2.973 0-3.276.277-3.276 3 0 2.892-.164 3-4.527 3h-4.526l.276-14.75.277-14.75h4c3.797 0 4.016.168 4.318 3.308.294 3.062.554 3.286 3.5 3 3.054-.296 3.17-.469 2.876-4.308-.44-5.761-2.94-7.519-10.555-7.421-3.376.043-6.814.32-7.639.615m29 .546c-2.498 1.316-2.5 1.332-2.775 18.182C43.884 208.371 43.681 208 55.5 208c11.694 0 11.5.341 11.5-20.206 0-14.113-.241-16.749-1.639-17.909-2.269-1.883-15.153-2.336-18.361-.645m63-.546c-3.562 1.273-4 3.446-4 19.842 0 19.579-.064 19.464 10.894 19.464 9.387 0 11.106-.934 11.106-6.035 0-3.739-.171-3.965-3-3.965-2.55 0-3 .383-3 2.555 0 2.424-.243 2.539-4.75 2.25l-4.75-.305-.297-6.209-.296-6.209 8.296-.291 8.297-.291v-8.84c0-8.085-.202-9.003-2.361-10.75-1.782-1.442-3.864-1.891-8.5-1.831-3.376.043-6.814.32-7.639.615m26.917-.279c-.229.228-.286 9.228-.126 20l.291 19.585H143v-15.066c0-8.286.446-15.899.992-16.918.545-1.02 2.345-2.151 4-2.514 2.334-.513 3.008-1.204 3.008-3.081 0-2.952-1.859-3.106-5.253-.437-2.515 1.979-2.523 1.979-3.041 0-.464-1.775-4.486-2.866-5.789-1.569m35.041.335c-.022.412-.011 8.85.026 18.75.059 15.575.292 18.168 1.733 19.25 1.998 1.5 8.674 1.646 11.288.247 1.252-.67 2.079-.67 2.493 0 .341.552 1.953 1.003 3.582 1.003h2.962l-.271-19.75-.271-19.75-2.75-.316-2.75-.317v16.444c0 18.238-.279 19.074-6.185 18.507l-3.315-.318-.274-17.25-.273-17.25h-2.977c-1.637 0-2.995.338-3.018.75m33.042.485c-2.324 1.225-2.521 1.913-2.796 9.791-.268 7.666-.091 8.641 1.861 10.224 1.397 1.134 3.878 1.75 7.046 1.75H216v5.933c0 5.016-.303 6.028-1.962 6.555-2.668.847-6.038-1.12-6.038-3.523 0-1.517-.685-1.965-3-1.965-2.735 0-3 .295-3 3.345 0 5.175 2.404 6.655 10.806 6.655 9.296 0 10.612-1.588 10.019-12.088-.463-8.203-1.318-9.111-9.325-9.912l-5-.5v-12l3.75-.31c3.438-.285 3.75-.098 3.75 2.25 0 2.276.402 2.56 3.625 2.56 3.553 0 3.612-.064 2.978-3.237-.356-1.78-1.299-3.888-2.095-4.684-1.968-1.968-12.309-2.531-15.508-.844m-154.287 4.386c-.392.392-.713 7.186-.713 15.098v14.386l5.25-.303 5.25-.302v-29l-4.537-.296c-2.496-.163-4.858.025-5.25.417m30.894.961c-.334.87-.607 6.908-.607 13.418 0 6.51.273 12.548.607 13.418.837 2.181 7.949 2.181 8.786 0 1.168-3.044.669-25.956-.593-27.218-1.776-1.776-7.467-1.511-8.193.382m31.107-.962c-.393.392-.714 3.105-.714 6.028 0 4.834.226 5.371 2.5 5.941 1.375.345 3.647.34 5.049-.012 2.408-.604 2.532-.956 2.25-6.358l-.299-5.719-4.036-.297c-2.22-.163-4.358.024-4.75.417" fill="#1976D2" fill-rule="evenodd"/></svg>